<svg width="20" height="20" viewBox="0 0 20 20" fill="none" xmlns="http://www.w3.org/2000/svg">
<path fill-rule="evenodd" clip-rule="evenodd" d="M15.8858 5.05482C16.1461 4.79447 16.1461 4.37236 15.8858 4.11201C15.6254 3.85166 15.2033 3.85166 14.943 4.11201L9.99877 9.0562L5.05458 4.11201C4.79423 3.85166 4.37212 3.85166 4.11177 4.11201C3.85142 4.37236 3.85142 4.79447 4.11177 5.05482L9.05596 9.99901L4.11177 14.9432C3.85142 15.2036 3.85142 15.6257 4.11177 15.886C4.37212 16.1464 4.79423 16.1464 5.05458 15.886L9.99877 10.9418L14.943 15.886C15.2033 16.1464 15.6254 16.1464 15.8858 15.886C16.1461 15.6257 16.1461 15.2036 15.8858 14.9432L10.9416 9.99901L15.8858 5.05482Z" fill="#2D3440"/>
</svg>
