<svg xmlns="http://www.w3.org/2000/svg" xmlns:xlink="http://www.w3.org/1999/xlink"><symbol id="icon-cart"><path d="M20.188 6.857h-3.55L13.188.381C12.985 0 12.58-.095 12.174.095s-.507.572-.304.953l3.145 5.81H5.783l3.145-5.81c.202-.381 0-.762-.305-.953-.406-.19-.811 0-1.014.286l-3.45 6.476H.812c-.406 0-.812.286-.812.762 0 .381.304.762.812.762h.202l.914 2.857c-.203.095-.305.286-.305.572 0 .38.305.666.71.666L4.058 18h12.884l1.725-5.524c.405 0 .71-.286.71-.667 0-.19-.102-.476-.304-.57l.912-2.858h.203c.406 0 .812-.286.812-.762 0-.476-.406-.762-.812-.762Zm-4.565 9.62H5.073L3.854 12.38h13.087l-1.319 4.095Zm1.623-5.525H3.348l-.812-2.666h15.522l-.812 2.666Z"/></symbol><symbol id="logo-htmlacademy"><path d="M13.6 0h-.1L0 1.4v24.7l13.5 8 13.4-8V1.4L13.6 0ZM25 12.1 13.5 5.3v-.1h-.1l-.1-.1v.1L1.9 12.1v-9l11.5-1.2L25 3.1v9ZM13.4 6.8l11.5 6.7-4.5 2.6-7.1-4.2v1.4l5.9 3.5-.9.5-5-3v1.4l3.8 2.3-.8.5-3-1.8v1.4l1.9 1.1-1.8 1.1L2 13.6l11.4-6.8ZM1.9 15.1l11.4 6.8v1l-7.9-4.7v1.4l8 4.8v1.1l-8-4.7v1.4l8 4.8 8.1-4.9v-5.2l3.4-2v10l-11.5 6.9L1.9 25v-9.9Z"/></symbol><symbol id="logo-telegram"><path fill-rule="evenodd" clip-rule="evenodd" d="M23.46 3.653c.18.15.265.382.227.611l-2.626 15.757a.657.657 0 0 1-1.012.439l-7.878-5.253a.657.657 0 0 1-.149-.956l2.611-3.263-4.36 2.906a.657.657 0 0 1-.658.041L4.363 11.31a.657.657 0 0 1 .073-1.205l18.383-6.566a.657.657 0 0 1 .642.115Zm-17.134 7.17 3.536 1.768 7.561-5.041a.656.656 0 0 1 .877.956l-4.805 6.006 6.438 4.292L22.208 5.15 6.326 10.823Z"/></symbol><symbol id="logo-vkontakte"><path d="M1 5.839c0-.855.515-1.316 1.545-1.383l3.97.025a.52.52 0 0 1 .533.377c.409 1.257.866 2.343 1.372 3.257.506.913 1.168 1.965 1.985 3.156.071.15.187.226.346.226.125 0 .223-.059.293-.176l.08-.277.027-4.35c0-.302-.075-.503-.226-.604-.151-.1-.431-.176-.84-.226-.32-.05-.48-.235-.48-.553 0-.067.01-.118.027-.151.373-1.09 1.44-1.635 3.198-1.635l1.492-.025c.675 0 1.234.16 1.678.478.444.318.666.821.666 1.509v5.708c.125.084.24.126.347.126.266 0 .497-.15.692-.453 1.954-2.582 3.011-4.308 3.17-5.18 0-.017.019-.059.054-.126.125-.251.329-.47.613-.654.284-.184.533-.31.746-.377a.554.554 0 0 1 .24-.05h4.13l.266.025c.355 0 .63.16.826.478.07.1.12.21.146.327.027.117.045.234.054.352.009.117.013.184.013.2v.177c-.124.687-.44 1.42-.946 2.2-.506.78-1.15 1.622-1.931 2.528-.782.905-1.27 1.5-1.466 1.785-.16.201-.24.386-.24.553 0 .135.071.286.213.453l3.89 4.627c.213.269.32.562.32.88 0 .386-.16.705-.48.956-.32.252-.701.394-1.145.428l-.453.025h-4.05a.855.855 0 0 0-.106.012.862.862 0 0 1-.107.013c-.39 0-.755-.16-1.092-.478-.125-.134-.96-1.123-2.505-2.967a1.387 1.387 0 0 0-.373-.327c-.07.268-.164.654-.28 1.157-.115.503-.2.863-.253 1.081l-.08.427c-.177.587-.55.94-1.119 1.057l-.373.025h-2.61c-1.475 0-2.945-.637-4.41-1.911-1.466-1.275-2.784-2.922-3.957-4.942-1.172-2.02-2.264-4.372-3.277-7.054A1.916 1.916 0 0 1 1 5.838Zm16.013 6.513c-.373 0-.71-.096-1.013-.29-.302-.192-.453-.456-.453-.791V5.487c0-.336-.089-.575-.266-.717-.178-.143-.489-.214-.933-.214l-1.518.05c-.764 0-1.341.126-1.732.378.781.352 1.172.922 1.172 1.71v4.426a1.5 1.5 0 0 1-.533 1.044 1.59 1.59 0 0 1-1.066.414c-.532 0-.94-.243-1.225-.729C8.06 9.871 7.03 7.993 6.356 6.216l-.24-.654-3.544-.025c-.231 0-.36.013-.386.038-.027.025-.04.096-.04.213 0 .151.017.31.053.478l.56 1.409c1.491 3.638 3.112 6.505 4.862 8.6 1.75 2.096 3.468 3.144 5.155 3.144h2.665c.106 0 .186-.03.24-.088.053-.06.097-.172.133-.34l.053-.251.506-2.213c.142-.302.267-.503.373-.604a.975.975 0 0 1 .693-.277c.426 0 .861.243 1.305.73l2.265 2.716c.142.218.293.327.453.327h4.396c.533 0 .8-.126.8-.378a.466.466 0 0 0-.08-.251l-3.864-4.552c-.302-.352-.453-.73-.453-1.131 0-.403.142-.788.427-1.157.23-.336.679-.893 1.345-1.673a37.64 37.64 0 0 0 1.745-2.188c.498-.679.826-1.295.986-1.848l.08-.327a.371.371 0 0 1-.027-.163.574.574 0 0 0-.026-.189h-4.183c-.267.1-.48.252-.64.453l-.16.478c-.444 1.156-1.607 2.942-3.49 5.356a1.892 1.892 0 0 1-1.305.503Z"/></symbol><symbol id="logo-youtube"><path d="m17.85 11.293-5.236-3.491a.655.655 0 0 0-1.014.545v6.982a.654.654 0 0 0 1.014.546l5.237-3.491a.655.655 0 0 0 0-1.091Zm-4.94 2.814V9.57l3.403 2.27-3.404 2.268Zm12.48-8.563a2.4 2.4 0 0 0-1.452-1.637C20.218 2.478 14.251 2.5 14 2.5c-.25 0-6.218-.022-9.938 1.407A2.4 2.4 0 0 0 2.61 5.544C2.327 6.613 2 8.576 2 11.838c0 3.262.327 5.226.61 6.295a2.4 2.4 0 0 0 1.452 1.636c3.72 1.43 9.687 1.407 9.938 1.407h.076c.753 0 6.317-.043 9.862-1.407a2.4 2.4 0 0 0 1.451-1.636c.284-1.07.611-3.033.611-6.295s-.327-5.225-.61-6.294Zm-1.266 12.261a1.09 1.09 0 0 1-.655.742c-3.49 1.342-9.404 1.32-9.469 1.32-.066 0-5.978.022-9.47-1.32a1.09 1.09 0 0 1-.654-.742c-.261-1.003-.567-2.847-.567-5.967 0-3.12.306-4.963.567-5.967a1.09 1.09 0 0 1 .655-.742C8.02 3.787 13.935 3.81 14 3.81c.066 0 5.978-.022 9.47 1.32a1.092 1.092 0 0 1 .654.742c.262 1.004.567 2.847.567 5.967 0 3.12-.305 4.964-.567 5.967Z"/></symbol><symbol id="mishka-logo-footer"><path d="M19.27 21.381c-.1-2.685-.502-5.27-.502-7.956 0-2.187.401-4.375-.4-6.464 0-.199.1-.497.1-.696.2-.994-3.31-.497-3.81.497-.301.299-.502.597-.401.995 0 .1.1.199.1.298-.702 3.183-1.604 6.265-2.607 9.348-.4 1.194-.902 2.288-1.303 3.481-.602-1.094-1.203-2.188-1.604-3.381-1.404-3.381-2.607-6.862-4.311-10.144.2-1.492-3.208-1.392-3.91 0C-.18 9.05-.08 10.74.221 12.53c.3 1.99.401 3.978.401 6.067 0 3.978.401 7.856.401 11.834-.401.398-.501.895-.1 1.392.2.2.4.398.601.498 1.003.696 3.61.099 3.61-1.293 0-4.078-.301-8.155-.402-12.332v-1.193c.1.1.1.298.2.398.602 1.59 1.304 3.182 2.207 4.674.902 1.491 1.303 3.082 1.804 4.674-.2.199-.3.497-.2.696 0 .199.1.298.3.398.602.497 1.805.298 2.507 0 .3-.1.601-.299.802-.398.3-.2.902-.696.702-1.194 0-.099-.1-.198-.1-.298.5-1.293.701-2.585 1.002-3.878.3-1.393.802-2.785 1.303-4.078.1.597.1 1.194.2 1.89.201 2.585 0 5.072 0 7.558 0 .795.1 1.591.201 2.486.1.298.401 1.79.3 1.89-.801.497-.6 1.093.201 1.292.903.2 2.106-.1 2.808-.696 1.203-1.094.601-2.784.4-4.177-.5-2.386 0-4.972-.1-7.359ZM27.69 22.077c-.1-1.989-.801-3.878-.801-5.867 0-2.287.2-4.575-.2-6.862-.101-.696-4.111.1-3.91.995.3 2.088.2 4.176.2 6.364 0 1.99.501 3.879.701 5.868.301 2.088-.1 4.176.1 6.165.101.995.803 2.686.101 3.58-.401.498 1.504.299 1.604.299.802-.1 1.805-.398 2.306-.995.702-.795.2-2.386.1-3.38-.3-1.99-.1-4.178-.2-6.167ZM44.032 18.796c-2.105-2.785-5.915-.796-8.622-1.492-1.403-.398-1.403-2.287-1.403-3.381 0-1.392-.1-2.685-.301-4.077-.1-1.094 0-2.089.702-2.884.1-.1.902-.299.802-.299.4-.1.702-.1 1.103-.1 1.503-.099 4.611.2 4.01 2.487-.3.994 3.609.398 3.91-.597 1.203-4.574-7.319-3.68-9.725-3.083-2.206.597-4.612 1.79-4.812 4.376-.1 1.194.3 2.387.3 3.58.1 1.393-.2 2.785.301 4.078 1.103 2.983 5.514 1.59 7.82 1.69 3.81.299 2.707 5.47 2.707 7.857 0 1.292 1.203 3.38.2 4.475-.6.696-2.005.696-2.806.795-.803.1-2.206.299-2.707-.497-1.003-1.392.1-3.779-.1-5.37-.1-.895-4.111-.1-3.91.994.3 2.586-1.404 6.067 2.406 6.564 2.406.298 5.213-.199 7.519-.895 1.203-.398 2.305-.895 3.208-1.79 1.002-.895.702-2.287.4-3.48-.5-3.084.903-6.465-1.002-8.951ZM61.477 18.596c-.1-3.779-.702-7.458-.702-11.237 0-1.99-4.01-1.293-4.01.298 0 3.58.5 7.16.701 10.74v.2c-1.904 0-3.91.198-5.915.198.2-4.574-.601-9.149-.4-13.823 0-.597-3.91-.1-3.91.995-.201 4.475.6 8.85.5 13.326-.1 2.088-.2 4.276-.3 6.364 0 1.094.2 2.188.3 3.282.1.994.502 2.287.201 3.282-.2.795 3.61.298 3.91-.696.501-1.79-.2-3.978-.4-5.768-.201-1.691 0-3.481.1-5.172 2.004-.1 4.11-.298 6.115 0 .1 1.393.2 2.785.3 4.078.1 1.193.201 2.287.201 3.48 0 .995.1 2.487-.2 3.481-.802 2.088 3.107 1.89 3.709.398.702-1.89.501-4.177.401-6.166-.2-2.486-.602-4.873-.602-7.26ZM78.42 22.972c-.903-2.784-2.407-5.17-3.61-7.757a106.742 106.742 0 0 0 2.908-5.867c.802-1.79 1.403-3.779 3.108-5.072.601-.398.601-.895-.301-.994-.902-.1-2.105.199-2.807.696-1.404 1.293-2.406 2.685-3.108 4.376-.902 2.088-1.905 4.077-2.907 6.066-.1.1-.1.298-.201.398-.501.298-.802.795-.602 1.292a66.867 66.867 0 0 1-2.506 4.575c-.3-5.47-1.002-11.039-1.203-16.508 0-1.293-4.01-.497-3.91.994.2 6.862 1.203 13.625 1.303 20.486v.1c-.3.298-.2.497.1.597 0 1.79-.1 3.48-.2 5.27-.501.697.501 1.094 1.103 1.094h.1c.702 0 2.607-.298 2.707-1.392.2-2.088.3-4.177.2-6.265 1.605-1.69 2.908-3.58 4.111-5.57.802 1.492 1.504 2.984 2.005 4.575.902 2.685 2.306 5.271 3.108 7.956.501 1.79 4.511.696 3.91-.994-1.003-2.785-2.406-5.271-3.308-8.056ZM101.979 18.398c-.2-.796-1.403-.796-2.305-.796v-.994c-.1-2.685-.2-5.37-.402-7.956-.2-2.486-1.604-3.282-4.01-3.182-2.406.099-5.213.497-7.519 1.392-2.606.994-4.11 2.884-4.611 5.668-.502 2.984.2 6.166.4 9.15.201 3.48.1 6.96.1 10.442 0 .596 3.91 0 3.91-.995v-8.254c0-.796-.1-1.591-.1-2.387 1.404-.596 3.71 0 5.114.1 1.102.1 2.205-.2 3.208-.299 0 2.288.1 4.575.2 6.862 0 1.194.501 3.48-.4 4.475-.402.498 1.503.299 1.603.299.802-.1 1.805-.398 2.306-.995.902-1.094.501-3.779.401-5.072-.1-1.89-.1-3.779-.1-5.668 1.103-.2 2.406-.895 2.205-1.79Zm-14.637-.1c-.1-1.193-.2-2.486-.3-3.68-.201-2.287.1-5.568 2.305-6.96.602-.398 1.705-.299 2.406-.398 1.003-.2 2.005-.398 2.808.199 1.203.795.902 3.68.902 4.873 0 1.988.2 3.977.3 5.966-.6.1-1.102.1-1.704.1-2.306-.2-4.611-.597-6.717-.1ZM24.282 6.663c.501-.1 1.003-.199 1.504-.497l.2-.2c.502-.297 1.003-.795.702-1.391-.501-1.094-.4-2.188-.4-3.382C26.287.2 25.284 0 24.482 0c-.702.1-2.206.597-2.206 1.492 0 .994-.1 1.989.1 2.983 0 .1-.1.199-.1.398-.1.199 0 .398.1.597v.397c.1.2.2.398.401.498.602.298 1.103.298 1.504.298Z"/></symbol></svg>